solid hexagon_ring_outer100mm_wall5mm_height10mm
  facet normal 0.000000e+00 0.000000e+00 1.000000e+00
    outer loop
      vertex 1.000000e+02 0.000000e+00 1.000000e+01
      vertex 5.000000e+01 8.660254e+01 1.000000e+01
      vertex 4.711325e+01 8.160254e+01 1.000000e+01
    endloop
  endfacet
  facet normal 0.000000e+00 0.000000e+00 1.000000e+00
    outer loop
      vertex 1.000000e+02 0.000000e+00 1.000000e+01
      vertex 4.711325e+01 8.160254e+01 1.000000e+01
      vertex 9.422650e+01 0.000000e+00 1.000000e+01
    endloop
  endfacet
  facet normal 0.000000e+00 0.000000e+00 1.000000e+00
    outer loop
      vertex 5.000000e+01 8.660254e+01 1.000000e+01
      vertex -5.000000e+01 8.660254e+01 1.000000e+01
      vertex -4.711325e+01 8.160254e+01 1.000000e+01
    endloop
  endfacet
  facet normal 0.000000e+00 0.000000e+00 1.000000e+00
    outer loop
      vertex 5.000000e+01 8.660254e+01 1.000000e+01
      vertex -4.711325e+01 8.160254e+01 1.000000e+01
      vertex 4.711325e+01 8.160254e+01 1.000000e+01
    endloop
  endfacet
  facet normal 0.000000e+00 0.000000e+00 1.000000e+00
    outer loop
      vertex -5.000000e+01 8.660254e+01 1.000000e+01
      vertex -1.000000e+02 0.000000e+00 1.000000e+01
      vertex -9.422650e+01 0.000000e+00 1.000000e+01
    endloop
  endfacet
  facet normal 0.000000e+00 0.000000e+00 1.000000e+00
    outer loop
      vertex -5.000000e+01 8.660254e+01 1.000000e+01
      vertex -9.422650e+01 0.000000e+00 1.000000e+01
      vertex -4.711325e+01 8.160254e+01 1.000000e+01
    endloop
  endfacet
  facet normal 0.000000e+00 0.000000e+00 1.000000e+00
    outer loop
      vertex -1.000000e+02 0.000000e+00 1.000000e+01
      vertex -5.000000e+01 -8.660254e+01 1.000000e+01
      vertex -4.711325e+01 -8.160254e+01 1.000000e+01
    endloop
  endfacet
  facet normal -0.000000e+00 0.000000e+00 1.000000e+00
    outer loop
      vertex -1.000000e+02 0.000000e+00 1.000000e+01
      vertex -4.711325e+01 -8.160254e+01 1.000000e+01
      vertex -9.422650e+01 0.000000e+00 1.000000e+01
    endloop
  endfacet
  facet normal 0.000000e+00 0.000000e+00 1.000000e+00
    outer loop
      vertex -5.000000e+01 -8.660254e+01 1.000000e+01
      vertex 5.000000e+01 -8.660254e+01 1.000000e+01
      vertex 4.711325e+01 -8.160254e+01 1.000000e+01
    endloop
  endfacet
  facet normal 0.000000e+00 0.000000e+00 1.000000e+00
    outer loop
      vertex -5.000000e+01 -8.660254e+01 1.000000e+01
      vertex 4.711325e+01 -8.160254e+01 1.000000e+01
      vertex -4.711325e+01 -8.160254e+01 1.000000e+01
    endloop
  endfacet
  facet normal 0.000000e+00 0.000000e+00 1.000000e+00
    outer loop
      vertex 5.000000e+01 -8.660254e+01 1.000000e+01
      vertex 1.000000e+02 0.000000e+00 1.000000e+01
      vertex 9.422650e+01 0.000000e+00 1.000000e+01
    endloop
  endfacet
  facet normal 0.000000e+00 -0.000000e+00 1.000000e+00
    outer loop
      vertex 5.000000e+01 -8.660254e+01 1.000000e+01
      vertex 9.422650e+01 0.000000e+00 1.000000e+01
      vertex 4.711325e+01 -8.160254e+01 1.000000e+01
    endloop
  endfacet
  facet normal 0.000000e+00 0.000000e+00 -1.000000e+00
    outer loop
      vertex 1.000000e+02 0.000000e+00 0.000000e+00
      vertex 4.711325e+01 8.160254e+01 0.000000e+00
      vertex 5.000000e+01 8.660254e+01 0.000000e+00
    endloop
  endfacet
  facet normal 0.000000e+00 0.000000e+00 -1.000000e+00
    outer loop
      vertex 1.000000e+02 0.000000e+00 0.000000e+00
      vertex 9.422650e+01 0.000000e+00 0.000000e+00
      vertex 4.711325e+01 8.160254e+01 0.000000e+00
    endloop
  endfacet
  facet normal -0.000000e+00 0.000000e+00 -1.000000e+00
    outer loop
      vertex 5.000000e+01 8.660254e+01 0.000000e+00
      vertex -4.711325e+01 8.160254e+01 0.000000e+00
      vertex -5.000000e+01 8.660254e+01 0.000000e+00
    endloop
  endfacet
  facet normal 0.000000e+00 0.000000e+00 -1.000000e+00
    outer loop
      vertex 5.000000e+01 8.660254e+01 0.000000e+00
      vertex 4.711325e+01 8.160254e+01 0.000000e+00
      vertex -4.711325e+01 8.160254e+01 0.000000e+00
    endloop
  endfacet
  facet normal 0.000000e+00 0.000000e+00 -1.000000e+00
    outer loop
      vertex -5.000000e+01 8.660254e+01 0.000000e+00
      vertex -9.422650e+01 0.000000e+00 0.000000e+00
      vertex -1.000000e+02 0.000000e+00 0.000000e+00
    endloop
  endfacet
  facet normal 0.000000e+00 -0.000000e+00 -1.000000e+00
    outer loop
      vertex -5.000000e+01 8.660254e+01 0.000000e+00
      vertex -4.711325e+01 8.160254e+01 0.000000e+00
      vertex -9.422650e+01 0.000000e+00 0.000000e+00
    endloop
  endfacet
  facet normal 0.000000e+00 0.000000e+00 -1.000000e+00
    outer loop
      vertex -1.000000e+02 0.000000e+00 0.000000e+00
      vertex -4.711325e+01 -8.160254e+01 0.000000e+00
      vertex -5.000000e+01 -8.660254e+01 0.000000e+00
    endloop
  endfacet
  facet normal 0.000000e+00 0.000000e+00 -1.000000e+00
    outer loop
      vertex -1.000000e+02 0.000000e+00 0.000000e+00
      vertex -9.422650e+01 0.000000e+00 0.000000e+00
      vertex -4.711325e+01 -8.160254e+01 0.000000e+00
    endloop
  endfacet
  facet normal 0.000000e+00 0.000000e+00 -1.000000e+00
    outer loop
      vertex -5.000000e+01 -8.660254e+01 0.000000e+00
      vertex 4.711325e+01 -8.160254e+01 0.000000e+00
      vertex 5.000000e+01 -8.660254e+01 0.000000e+00
    endloop
  endfacet
  facet normal 0.000000e+00 0.000000e+00 -1.000000e+00
    outer loop
      vertex -5.000000e+01 -8.660254e+01 0.000000e+00
      vertex -4.711325e+01 -8.160254e+01 0.000000e+00
      vertex 4.711325e+01 -8.160254e+01 0.000000e+00
    endloop
  endfacet
  facet normal 0.000000e+00 0.000000e+00 -1.000000e+00
    outer loop
      vertex 5.000000e+01 -8.660254e+01 0.000000e+00
      vertex 9.422650e+01 0.000000e+00 0.000000e+00
      vertex 1.000000e+02 0.000000e+00 0.000000e+00
    endloop
  endfacet
  facet normal 0.000000e+00 0.000000e+00 -1.000000e+00
    outer loop
      vertex 5.000000e+01 -8.660254e+01 0.000000e+00
      vertex 4.711325e+01 -8.160254e+01 0.000000e+00
      vertex 9.422650e+01 0.000000e+00 0.000000e+00
    endloop
  endfacet
  facet normal 8.660254e-01 5.000000e-01 0.000000e+00
    outer loop
      vertex 1.000000e+02 0.000000e+00 0.000000e+00
      vertex 5.000000e+01 8.660254e+01 0.000000e+00
      vertex 5.000000e+01 8.660254e+01 1.000000e+01
    endloop
  endfacet
  facet normal 8.660254e-01 5.000000e-01 -0.000000e+00
    outer loop
      vertex 1.000000e+02 0.000000e+00 0.000000e+00
      vertex 5.000000e+01 8.660254e+01 1.000000e+01
      vertex 1.000000e+02 0.000000e+00 1.000000e+01
    endloop
  endfacet
  facet normal 0.000000e+00 1.000000e+00 0.000000e+00
    outer loop
      vertex 5.000000e+01 8.660254e+01 0.000000e+00
      vertex -5.000000e+01 8.660254e+01 0.000000e+00
      vertex -5.000000e+01 8.660254e+01 1.000000e+01
    endloop
  endfacet
  facet normal 0.000000e+00 1.000000e+00 -0.000000e+00
    outer loop
      vertex 5.000000e+01 8.660254e+01 0.000000e+00
      vertex -5.000000e+01 8.660254e+01 1.000000e+01
      vertex 5.000000e+01 8.660254e+01 1.000000e+01
    endloop
  endfacet
  facet normal -8.660254e-01 5.000000e-01 0.000000e+00
    outer loop
      vertex -5.000000e+01 8.660254e+01 0.000000e+00
      vertex -1.000000e+02 0.000000e+00 0.000000e+00
      vertex -1.000000e+02 0.000000e+00 1.000000e+01
    endloop
  endfacet
  facet normal -8.660254e-01 5.000000e-01 0.000000e+00
    outer loop
      vertex -5.000000e+01 8.660254e+01 0.000000e+00
      vertex -1.000000e+02 0.000000e+00 1.000000e+01
      vertex -5.000000e+01 8.660254e+01 1.000000e+01
    endloop
  endfacet
  facet normal -8.660254e-01 -5.000000e-01 0.000000e+00
    outer loop
      vertex -1.000000e+02 0.000000e+00 0.000000e+00
      vertex -5.000000e+01 -8.660254e+01 0.000000e+00
      vertex -5.000000e+01 -8.660254e+01 1.000000e+01
    endloop
  endfacet
  facet normal -8.660254e-01 -5.000000e-01 0.000000e+00
    outer loop
      vertex -1.000000e+02 0.000000e+00 0.000000e+00
      vertex -5.000000e+01 -8.660254e+01 1.000000e+01
      vertex -1.000000e+02 0.000000e+00 1.000000e+01
    endloop
  endfacet
  facet normal 0.000000e+00 -1.000000e+00 0.000000e+00
    outer loop
      vertex -5.000000e+01 -8.660254e+01 0.000000e+00
      vertex 5.000000e+01 -8.660254e+01 0.000000e+00
      vertex 5.000000e+01 -8.660254e+01 1.000000e+01
    endloop
  endfacet
  facet normal 0.000000e+00 -1.000000e+00 0.000000e+00
    outer loop
      vertex -5.000000e+01 -8.660254e+01 0.000000e+00
      vertex 5.000000e+01 -8.660254e+01 1.000000e+01
      vertex -5.000000e+01 -8.660254e+01 1.000000e+01
    endloop
  endfacet
  facet normal 8.660254e-01 -5.000000e-01 0.000000e+00
    outer loop
      vertex 5.000000e+01 -8.660254e+01 0.000000e+00
      vertex 1.000000e+02 0.000000e+00 0.000000e+00
      vertex 1.000000e+02 0.000000e+00 1.000000e+01
    endloop
  endfacet
  facet normal 8.660254e-01 -5.000000e-01 0.000000e+00
    outer loop
      vertex 5.000000e+01 -8.660254e+01 0.000000e+00
      vertex 1.000000e+02 0.000000e+00 1.000000e+01
      vertex 5.000000e+01 -8.660254e+01 1.000000e+01
    endloop
  endfacet
  facet normal -8.660254e-01 -5.000000e-01 0.000000e+00
    outer loop
      vertex 9.422650e+01 0.000000e+00 0.000000e+00
      vertex 9.422650e+01 0.000000e+00 1.000000e+01
      vertex 4.711325e+01 8.160254e+01 1.000000e+01
    endloop
  endfacet
  facet normal -8.660254e-01 -5.000000e-01 0.000000e+00
    outer loop
      vertex 9.422650e+01 0.000000e+00 0.000000e+00
      vertex 4.711325e+01 8.160254e+01 1.000000e+01
      vertex 4.711325e+01 8.160254e+01 0.000000e+00
    endloop
  endfacet
  facet normal 0.000000e+00 -1.000000e+00 0.000000e+00
    outer loop
      vertex 4.711325e+01 8.160254e+01 0.000000e+00
      vertex 4.711325e+01 8.160254e+01 1.000000e+01
      vertex -4.711325e+01 8.160254e+01 1.000000e+01
    endloop
  endfacet
  facet normal 0.000000e+00 -1.000000e+00 0.000000e+00
    outer loop
      vertex 4.711325e+01 8.160254e+01 0.000000e+00
      vertex -4.711325e+01 8.160254e+01 1.000000e+01
      vertex -4.711325e+01 8.160254e+01 0.000000e+00
    endloop
  endfacet
  facet normal 8.660254e-01 -5.000000e-01 0.000000e+00
    outer loop
      vertex -4.711325e+01 8.160254e+01 0.000000e+00
      vertex -4.711325e+01 8.160254e+01 1.000000e+01
      vertex -9.422650e+01 0.000000e+00 1.000000e+01
    endloop
  endfacet
  facet normal 8.660254e-01 -5.000000e-01 0.000000e+00
    outer loop
      vertex -4.711325e+01 8.160254e+01 0.000000e+00
      vertex -9.422650e+01 0.000000e+00 1.000000e+01
      vertex -9.422650e+01 0.000000e+00 0.000000e+00
    endloop
  endfacet
  facet normal 8.660254e-01 5.000000e-01 -0.000000e+00
    outer loop
      vertex -9.422650e+01 0.000000e+00 0.000000e+00
      vertex -9.422650e+01 0.000000e+00 1.000000e+01
      vertex -4.711325e+01 -8.160254e+01 1.000000e+01
    endloop
  endfacet
  facet normal 8.660254e-01 5.000000e-01 0.000000e+00
    outer loop
      vertex -9.422650e+01 0.000000e+00 0.000000e+00
      vertex -4.711325e+01 -8.160254e+01 1.000000e+01
      vertex -4.711325e+01 -8.160254e+01 0.000000e+00
    endloop
  endfacet
  facet normal 0.000000e+00 1.000000e+00 0.000000e+00
    outer loop
      vertex -4.711325e+01 -8.160254e+01 0.000000e+00
      vertex -4.711325e+01 -8.160254e+01 1.000000e+01
      vertex 4.711325e+01 -8.160254e+01 1.000000e+01
    endloop
  endfacet
  facet normal 0.000000e+00 1.000000e+00 0.000000e+00
    outer loop
      vertex -4.711325e+01 -8.160254e+01 0.000000e+00
      vertex 4.711325e+01 -8.160254e+01 1.000000e+01
      vertex 4.711325e+01 -8.160254e+01 0.000000e+00
    endloop
  endfacet
  facet normal -8.660254e-01 5.000000e-01 0.000000e+00
    outer loop
      vertex 4.711325e+01 -8.160254e+01 0.000000e+00
      vertex 4.711325e+01 -8.160254e+01 1.000000e+01
      vertex 9.422650e+01 0.000000e+00 1.000000e+01
    endloop
  endfacet
  facet normal -8.660254e-01 5.000000e-01 0.000000e+00
    outer loop
      vertex 4.711325e+01 -8.160254e+01 0.000000e+00
      vertex 9.422650e+01 0.000000e+00 1.000000e+01
      vertex 9.422650e+01 0.000000e+00 0.000000e+00
    endloop
  endfacet
endsolid hexagon_ring_outer100mm_wall5mm_height10mm
